<svg viewBox="0 0 150 30" xmlns="http://www.w3.org/2000/svg"><g fill-rule="evenodd"><path d="m13.88 2a13 13 0 1 0 13 13 13 13 0 0 0 -13-13zm0 24.12a11.12 11.12 0 1 1 11.12-11.12 11.12 11.12 0 0 1 -11.12 11.12z"/><path d="m48.3 6.59h-4.64v16.99h11.18v-3.96h-6.54z"/><path d="m63.27 17.16c0 1.89-.34 3-1.55 3-1 0-1.55-.57-1.55-2.27v-6.8h-4v7.56c0 3.58 1.38 5.47 3.79 5.47 1.55 0 2.58-.75 3.61-2.46v1.89h3.78v-12.43h-4.08v6z"/><path d="m70 11.12h-1.4v2.88h1.4v9.63h4.1v-9.63h1.72v-2.88h-1.72c-.17-1.89.34-1.89 1.72-1.89v-3h-1.72c-2.58-.03-4.1.54-4.1 4.89z"/><path d="m82 7.34h-4.11v3.78h-1.38v2.88h1.38v5.29c0 4.16.69 4.91 6 4.34v-3.63h-.69c-1 0-1.2-.38-1.2-1.52v-4.48h2.06v-2.88h-2.06z"/><path d="m93.37 10.93a3.63 3.63 0 0 0 -3.27 1.89v-6.23h-3.95v17h3.95v-6.23c0-1.7.34-2.65 1.72-2.65 1.2 0 1.38 1.13 1.38 2.27v6.61h4.13v-7.37c0-3.4-1.2-5.29-3.96-5.29z"/><path d="m119.7 10.93a3.75 3.75 0 0 0 -3.44 2.27v-2.08h-3.79v12.47h4v-6.23c0-1.7.34-2.65 1.72-2.65 1.21 0 1.38 1.13 1.38 2.27v6.61h4.13v-7.37c-.04-3.4-1.25-5.29-4-5.29z"/><path d="m129.5 14.33c0-.58.34-.76 1-.76a1.14 1.14 0 0 1 1 .28 1.87 1.87 0 0 1 .23.85h4c-.34-3.21-3.1-3.78-5.33-3.78-2.07 0-4.82.76-4.82 4 0 4.91 6.19 3.21 6.19 5.29a1.07 1.07 0 0 1 -1.2 1.13 1.62 1.62 0 0 1 -1-.37 1.93 1.93 0 0 1 -.34-1.14h-4c.34 3.21 2.74 4.35 5.15 4.35 3.79 0 5.51-1.89 5.51-4.54-.02-4.74-6.39-3.42-6.39-5.31z"/><path d="m148.6 21.69v-5.69c0-3-.34-5.1-5.16-5.1h-.52c-3.79 0-5.34 1.71-5.34 4.16h4a1.35 1.35 0 0 1 1.38-1.32h.17c.52 0 1.38.19 1.38 1.14 0 .75-.69.94-1.55 1.13-2.24.38-5.85.19-5.85 4.16a3.63 3.63 0 0 0 3.79 4 4.06 4.06 0 0 0 2.06-.37 6.18 6.18 0 0 0 1.72-1.52l.17 1.32h4.3v-.19a2 2 0 0 1 -.55-1.72zm-5.68-.75h-.34c-.86 0-1.2-.38-1.2-.94 0-.95.69-1.32 1.55-1.52a3.09 3.09 0 0 0 1.55-.57c-.01 1.71-.48 2.83-1.56 3.03z"/><path d="m110.23 16c0-3-.34-5.1-5.15-5.1-.35 0-.35 0-.52 0-3.79 0-5.34 1.68-5.34 4.13h4a1.35 1.35 0 0 1 1.38-1.32h.17c.52 0 1.38.19 1.38 1.14 0 .75-.69.94-1.55 1.13-2.24.38-5.85.19-5.85 4.16a3.63 3.63 0 0 0 3.79 4 4.08 4.08 0 0 0 2.06-.37 6.18 6.18 0 0 0 1.72-1.52l.17 1.32h4.3v-.19a2 2 0 0 1 -.52-1.7zm-5.67 5h-.34c-.86 0-1.21-.38-1.21-.94 0-.94.69-1.32 1.55-1.51a3.19 3.19 0 0 0 1.55-.57c0 1.66-.52 2.79-1.55 3.02z"/><path d="m15.74 11.82c-.27 0-.89 3.6-4.19 3.35a6.85 6.85 0 0 1 -3.55-1.47l2.82 1.09.25-.37-5.53-2.35-.23.56-1.81-.51-.19.63a12.07 12.07 0 0 1 3.24 1.54 69.77 69.77 0 0 0 6.74 4.1 23.85 23.85 0 0 0 7.49 2.21s.81-1.28.81-1.28a7.71 7.71 0 0 1 -3-.13c-.59-.24-2.73-1-3.23-2.26a3.92 3.92 0 0 1 2.4-1.11 14.67 14.67 0 0 1 4.49-.16l.35-.65s-1.81-.09-2.46-.09-2.67.09-2.67.09l.15-.39s1.46-.14 2.61-.12c.85 0 2.56.11 2.56.11l.34-.64s-2-.14-2.79-.13-2.44.13-2.44.13l.18-.42s1.4-.12 2.31-.12 2.9.15 2.9.15l.37-.66s-2.1-.18-3.29-.15c-.75 0-2 .11-2 .11l.16-.41a22.81 22.81 0 0 1 5.37.08l.34-.65a31.08 31.08 0 0 0 -8.5-.08z"/></g></svg>