<svg xmlns="http://www.w3.org/2000/svg" viewBox="0 0 150 30">
  <g>
    <path d="M39.25,8.68c-.08-.15-.15-.07-.22-.07l-6.15,2a.31.31,0,0,0-.22.3v9.3a.52.52,0,0,0,.37.6l3.73,2c.07.07.07.07.15,0l4.25-3.35c.15-.15,0-.23-.3-.08l-1.53.9a1.44,1.44,0,0,1-1.1-.15l-1.69-.9c-.21-.15-.21-.22-.21-.45V16.27L41.45,13h0c.14-.08.14-.15.07-.23Zm-.88,5.51-2,1.72.07-5.73L38.45,14C38.51,14,38.51,14.12,38.37,14.19Z"/>
    <path d="M17.58,13.74a8.78,8.78,0,0,1-8.19,6,5.64,5.64,0,0,1-2.49-.6L11.73,16c.15-.07.15-.15.15-.37V6.89A9,9,0,0,0,13.34,7c2.57,0,5.13-.89,6.37-3.57,0-.07,0-.22-.14-.15a7.85,7.85,0,0,1-3.44.82c-3.3,0-6.37-1.64-9.73-1.64C3.47,2.5.54,4.36.4,7.71c0,.15.08.15.22,0a5.13,5.13,0,0,1,4.15-2.3,9.87,9.87,0,0,1,3.59.82V17a1.11,1.11,0,0,1-.51,1.11L6.61,19A7,7,0,0,1,3.39,12.7,7.81,7.81,0,0,1,6.17,6.52c.15-.15.07-.22-.08-.15a8,8,0,0,0-6,7.9,8.79,8.79,0,0,0,9.07,8.85,8.73,8.73,0,0,0,8.72-8.93v-.3C17.88,13.44,17.66,13.52,17.58,13.74Z"/>
    <path d="M58.78,15.61V6.89A9,9,0,0,0,60.24,7c2.56,0,5.13-.89,6.3-3.57,0-.07,0-.22-.15-.15A7.85,7.85,0,0,1,63,4.14c-3.37,0-6.37-1.64-9.73-1.64-2.93,0-5.86,1.86-6,5.21q0,.23.21,0A5.18,5.18,0,0,1,51.61,5.4a9.86,9.86,0,0,1,3.58.82V17a1.12,1.12,0,0,1-.51,1.12L53.44,19a7,7,0,0,1-3.22-6.33A7.81,7.81,0,0,1,53,6.52c.15-.15.07-.22-.08-.15a8,8,0,0,0-6,7.89,8.9,8.9,0,0,0,17.79-.08v-.3c0-.45-.22-.37-.29-.15a8.8,8.8,0,0,1-8.2,6,5.64,5.64,0,0,1-2.49-.6L58.64,16C58.78,15.91,58.78,15.83,58.78,15.61Z"/>
    <path d="M32.15,19.62l-.59.3c-.37.23-.51.3-.8,0l-.73-.6c-.15-.15-.15-.15-.15-.3v-8.1a.7.7,0,0,0-.3-.67l-1.9-1.79c-.07-.07-.15-.07-.29,0l-3.88,2.46V6a.91.91,0,0,0-.37-.74L21.31,3.55c-.07-.08-.07-.15-.21,0L18,6.15c-.15.15-.08.23,0,.23l.58-.3c.37-.23.51-.3.8,0l.29.3c.15.15.15.15.15.3v13.1c0,.37,0,.45.3.67l2.34,2.15c.08.08.08.15.22,0l2.63-2.3c.22-.15.15-.38-.15-.23l-.21.08a.83.83,0,0,1-.74-.23l-.66-.6c-.07-.07-.07-.15-.07-.3V11.43L25,10.77a.21.21,0,0,1,.29,0l.8.74c.15.15.15.22.15.3v8.11a.9.9,0,0,0,.37.74l2.34,2.08c.07.08.07.15.21,0l3-2.9C32.3,19.7,32.22,19.62,32.15,19.62Z"/>
    <path d="M72.62,8.68l-6.15,2c-.15.08-.22.15-.22.3V20.3c0,.37.08.44.37.59l3.73,2c.07.08.07.08.15,0l4.17-3.42c.15-.15,0-.23-.29-.08l-1.54.9a1.44,1.44,0,0,1-1.1-.15l-1.68-.9c-.22-.15-.22-.22-.22-.45V16.27L75,13h0c.08-.08.08-.15.15-.15l-2.27-4.1C72.76,8.61,72.69,8.68,72.62,8.68Zm-.81,5.51-2,1.72.07-5.73,2,3.79C72,14,72,14.12,71.81,14.19Z"/>
    <path d="M124.5,20.07l-.44.23c-.3.15-.37.22-1-.38l-.51-.45V11.14c0-.15-.07-.3-.37-.59l-1.82-1.87c-.15-.15-.22-.15-.37-.07l-6.74,2.83c0,.08-.15.08-.15.23V20.3c0,.37.08.37.37.67l2,1.86c.15.07.15.07.29,0l3.15-2.38,2.63,2.3c.08.08.08.15.22,0h0l3-2.53C124.94,20.07,124.79,19.92,124.5,20.07ZM118.94,20l-.51.22a.75.75,0,0,1-1-.15l-.37-.37a.61.61,0,0,1-.29-.6V10.62l.73-.3c.08,0,.08-.08.15,0l1,1a.55.55,0,0,1,.15.45H119V20Z"/>
    <path d="M135.55,11.21a1,1,0,0,0-.29-.67l-2-1.86s-.07-.08-.21,0l-3.88,2.15-2.12-2.15a.22.22,0,0,0-.3,0l-2.92,2.53c-.22.15-.08.3.15.15l.87-.45H125l.66.82V24.38l-.66.74a.14.14,0,0,0,0,.22l2.56,2.09c.08.07.15,0,.22,0l2.27-2.16a.14.14,0,0,0,0-.23l-.8-.66V21l2.78,1.72c.37.15.44.22.73,0l2.64-2.08h0c.22-.15.22-.23.15-.38v-9ZM132,19.55c0,.45,0,.74-.3,1l-.29.3c-.29.23-.58.3-1.24.08l-.81-.3V11.22l1.46-.6a.13.13,0,0,1,.22,0l.8.81a1.14,1.14,0,0,1,.15.45v7.67Z"/>
    <path d="M149.82,19.62l-.58.3c-.37.23-.51.3-.8,0l-.74-.6c-.15-.15-.15-.15-.15-.3v-8.1a.71.71,0,0,0-.29-.67l-1.9-1.79c-.08-.07-.15-.07-.29,0l-3.88,2.46V6a.91.91,0,0,0-.37-.74L139,3.55c-.07-.08-.07-.15-.22,0l-3.07,2.6c-.15.15-.07.23,0,.23l.59-.3c.36-.23.51-.3.8,0l.29.3c.15.15.15.15.15.3v13.1c0,.37,0,.45.29.67l2.34,2.15c.08.08.08.15.22,0L143,20.3c.22-.15.15-.38-.15-.23l-.21.08a.84.84,0,0,1-.74-.23l-.66-.6c-.07-.07-.07-.15-.07-.3V11.43l1.46-.66a.21.21,0,0,1,.29,0l.8.74c.15.15.15.22.15.3v8.11a.9.9,0,0,0,.37.74l2.35,2.08c.07.08.07.15.21,0h0l3-2.9C150,19.7,149.89,19.62,149.82,19.62Z"/>
    <path d="M113.6,10.24c.15-.15.07-.37-.22-.22l-.44.3a1.1,1.1,0,0,1-.44.15c-.22,0-.37-.15-.66-.45L110.3,8.6c-.07-.15-.15-.07-.29,0l-2,2-2-2c-.07-.07-.07-.07-.22,0l-3,2.53c-.22.15-.15.38.15.23l.88-.52c.07-.07.07-.07.15,0l.66.74V20a.63.63,0,0,0,.36.66l2.27,2.08c.08.08.08.15.22,0l3-2.53c.15-.15.08-.22-.15-.15l-.36.15c-.51.15-.59.15-1.1-.3l-.44-.45c-.15-.07-.15-.15-.15-.3V11l.15-.15,1.75,1.57a1.14,1.14,0,0,0,.45.15.54.54,0,0,0,.44-.15h0Z"/>
    <path d="M90.47,19.4l-1.54.89a1.41,1.41,0,0,1-1.09-.15l-1.69-.89c-.21-.15-.21-.23-.21-.45V16.27L91.06,13h0c.14-.08.14-.15.14-.15l-2.27-4.1c-.07-.15-.15-.07-.22-.07l-6.14,2c-.15.08-.22.15-.22.3v9.31c0,.37.07.45.36.6l3.74,2c.07.08.07.08.15,0l4.17-3.42C90.91,19.33,90.77,19.25,90.47,19.4ZM86,10.17l2,3.8c.08.07.08.15-.07.22l-2,1.72Z"/>
    <path d="M101.45,19V11a1.07,1.07,0,0,0-.37-.59L99.25,8.53a.33.33,0,0,0-.36,0l-6.66,2.83c0,.07-.15.07-.15.22v8.64c0,.3.07.37.37.67l2,1.85c.08.08.15.08.29,0l3.15-2.38c1.46.82,2.71,2,2.71,3.5a3.8,3.8,0,0,1-.29,1.49l-.07.08a10.1,10.1,0,0,0-5.35-2,5.4,5.4,0,0,0-4.6,2.76c-.08.07-.08.15.07.15a12.13,12.13,0,0,1,3.37-.6,8.05,8.05,0,0,1,4.46,1.71c.08.08.15.08.22,0l3.22-2.61c1.32-1.11,1.76-2.08,1.61-3.12A3.57,3.57,0,0,0,101.45,19Zm-3.51-7.22v8.34a1.79,1.79,0,0,1-.81.3,1,1,0,0,1-.65-.3c-.45-.45-.59-.52-.59-1V10.62l.73-.3c.08,0,.08-.08.15,0l1.1,1.11c.15.08.15.15.15.3Z"/>
    <path d="M81.47,20.15l-.22.07a.79.79,0,0,1-.73-.22l-.66-.6c-.07-.07-.07-.15-.07-.3V6.15a.93.93,0,0,0-.37-.74L77.59,3.7c-.07-.08-.07-.15-.22,0L74.3,6.3c-.15.15-.07.23,0,.23l.59-.3c.36-.23.51-.3.8,0l.29.3c.15.15.15.15.15.3v13.1c0,.37,0,.45.29.66l2.35,2.16c.07.08.07.15.21,0l2.64-2.38C81.84,20.22,81.76,20,81.47,20.15Z"/>
  </g>
</svg>
